<?xml version="1.0" encoding="UTF-8" standalone="no"?>
<!-- Created with Inkscape (http://www.inkscape.org/) -->

<svg
   width="127.49458mm"
   height="72.645996mm"
   viewBox="0 0 127.49458 72.645996"
   version="1.1"
   id="svg5"
   xml:space="preserve"
   xmlns:inkscape="http://www.inkscape.org/namespaces/inkscape"
   xmlns:sodipodi="http://sodipodi.sourceforge.net/DTD/sodipodi-0.dtd"
   xmlns="http://www.w3.org/2000/svg"
   xmlns:svg="http://www.w3.org/2000/svg"><sodipodi:namedview
     id="namedview7"
     pagecolor="#ffffff"
     bordercolor="#000000"
     borderopacity="0.25"
     inkscape:showpageshadow="2"
     inkscape:pageopacity="0.0"
     inkscape:pagecheckerboard="0"
     inkscape:deskcolor="#d1d1d1"
     inkscape:document-units="mm"
     showgrid="false" /><defs
     id="defs2" /><g
     inkscape:label="Capa 1"
     inkscape:groupmode="layer"
     id="layer1"
     transform="translate(-21.882948,-91.211561)"><path
       style="fill:#010101;stroke:none;stroke-width:0.24902"
       d="m 30.093476,91.292329 c -6.484398,0.851896 -10.613014,8.096374 -6.668576,13.837521 3.860208,5.61863 10.068491,10.37242 14.886223,15.1902 l 30.131373,30.13137 8.466667,8.46667 c 2.503892,2.50389 5.117602,5.1318 8.964706,4.92835 6.73598,-0.3566 12.281647,-8.74333 16.684311,-13.146 l 39.09608,-39.09608 c 4.38723,-4.38723 10.64185,-9.74962 6.19934,-16.435294 -0.64571,-0.971675 -1.48839,-1.821828 -2.46405,-2.463302 -6.54747,-4.304279 -11.86703,1.630331 -16.18627,5.949576 l -32.123529,32.12353 -8.217647,8.21765 c -0.731869,0.73187 -2.106457,2.72527 -3.237255,2.72527 -1.130798,0 -2.505386,-1.9934 -3.237255,-2.72527 L 73.920927,130.52985 43.789555,100.39848 C 40.20559,96.814587 35.900688,90.529581 30.093476,91.292329 Z"
       id="path125" /></g></svg>
