<?xml version="1.0" encoding="UTF-8" standalone="no"?>
<!-- Created with Inkscape (http://www.inkscape.org/) -->

<svg
   width="97.168602mm"
   height="16.490631mm"
   viewBox="0 0 97.168602 16.490631"
   version="1.1"
   id="svg5"
   xml:space="preserve"
   xmlns:inkscape="http://www.inkscape.org/namespaces/inkscape"
   xmlns:sodipodi="http://sodipodi.sourceforge.net/DTD/sodipodi-0.dtd"
   xmlns="http://www.w3.org/2000/svg"
   xmlns:svg="http://www.w3.org/2000/svg"><sodipodi:namedview
     id="namedview7"
     pagecolor="#ffffff"
     bordercolor="#000000"
     borderopacity="0.25"
     inkscape:showpageshadow="2"
     inkscape:pageopacity="0.0"
     inkscape:pagecheckerboard="0"
     inkscape:deskcolor="#d1d1d1"
     inkscape:document-units="mm"
     showgrid="false" /><defs
     id="defs2" /><g
     inkscape:label="Capa 1"
     inkscape:groupmode="layer"
     id="layer1"
     transform="translate(-39.887326,-146.18252)"><path
       style="fill:#afa9ff;stroke:none;stroke-width:0.0846667"
       d="m 125.91362,157.55732 c 0.22691,-0.80433 1.10998,-2.68182 0.66209,-3.46007 -0.24807,-0.43214 -0.85089,-0.37287 -1.25476,-0.24655 -0.99229,0.31013 -1.69502,1.19481 -2.37066,1.92862 0.0821,-0.67175 0.77301,-2.07357 0.54695,-2.69088 -0.20913,-0.57251 -1.89103,0.18331 -2.11523,0.49624 -0.26619,0.37143 0.0538,1.22741 0.46761,1.34797 l -0.67733,2.20134 h -0.0847 v -0.254 l -2.794,1.69333 c 0.0179,-0.86106 0.34273,-1.79366 0.767,-2.54 0.27999,-0.49259 0.84404,-1.0624 0.71264,-1.69172 -0.14995,-0.71806 -1.17585,-0.5086 -1.51037,-0.0813 -0.50462,0.64465 -0.61053,1.54923 -1.13674,2.18804 -0.25366,0.30801 -0.63737,0.21954 -0.92134,0.46837 -0.47523,0.41639 -0.78715,1.14893 -1.16874,1.65659 -0.36,0.47879 -1.22961,1.54076 -1.68961,0.59131 -0.47946,-0.98958 -0.25281,-2.58292 -0.14715,-3.63931 0.12988,-1.29887 0.0692,-3.11768 0.60139,-4.318 0.56413,-1.27213 2.35416,-2.69088 3.64625,-3.1441 0.58861,-0.20645 1.61536,-0.3084 1.75836,0.51975 0.0719,0.41662 -0.20472,0.86394 -0.0566,1.26465 0.14554,0.394 0.49327,0.27072 0.69833,0 1.06367,-1.40398 -0.0193,-3.54516 -1.72271,-3.4629 -1.62001,0.0782 -3.34036,1.66635 -4.14867,2.95993 h -0.0847 c -0.64965,-0.6531 -1.44154,1.545 -1.78986,2.032 -0.93802,1.31124 -1.85869,2.6648 -2.66133,4.064 -0.6499,1.1331 -1.26889,2.41757 -2.15281,3.38667 0.27465,-1.15367 0.006,-2.40386 -0.14546,-3.556 -0.19753,-1.50216 -0.37482,-3.05452 -0.27034,-4.572 0.034,-0.49314 0.11413,-1.10398 0.39056,-1.524 0.17679,-0.26858 0.68623,-0.62377 0.50885,-0.99666 -0.37143,-0.78094 -1.46871,0.27304 -1.66895,0.65799 h -0.0847 c -0.19178,-0.60952 -0.50276,-0.67686 -1.10067,-0.67733 0,-0.44031 0.19033,-1.66825 -0.50919,-1.66825 -1.02362,0 -0.0732,1.73476 -0.77334,2.0405 -0.40318,0.17606 -1.06672,0.12524 -1.51147,0.19951 -1.93557,0.32321 -5.461172,0.59238 -6.309447,2.73024 -0.527389,1.32918 0.48497,2.94428 1.652778,3.55727 0.412326,0.21641 1.427649,0.61366 1.798489,0.14114 0.268732,-0.34231 -0.05825,-0.61502 -0.360426,-0.73381 -0.829564,-0.32605 -2.259838,-1.20658 -2.094738,-2.28727 0.110067,-0.72051 1.066631,-1.06197 1.672675,-1.23376 1.738459,-0.49273 3.602909,-0.31174 5.333999,-0.79824 -1.18702,3.0773 -1.974,5.9707 -4.184903,8.55134 -0.646938,0.75505 -1.4224,1.49614 -2.33443,1.9199 -0.605451,0.28126 -1.448985,0.1761 -1.608666,0.95876 -0.74058,-0.34654 -0.846074,-0.97798 -0.5969,-1.69333 0.102785,-0.29523 0.34925,-0.96452 -0.09974,-1.11328 -0.496654,-0.16443 -0.83312,0.60071 -0.977053,0.94395 -0.369147,0.88053 -0.306832,2.12301 0.574294,2.66877 1.106509,0.68538 2.714075,0.164 3.80873,-0.29938 2.883158,-1.22038 5.781048,-4.86376 6.603998,-7.87273 h 0.0847 c 0.22005,1.74126 0.63314,3.58089 0.67606,5.334 0.0116,0.47253 -0.52569,1.66269 -0.20167,1.98061 0.60875,0.59715 1.82211,-1.01625 2.12911,-1.38794 1.09889,-1.33054 1.95479,-2.8614 2.87283,-4.318 0.47929,-0.76039 1.14799,-1.53077 1.46634,-2.37067 h 0.0847 c -0.27203,1.84887 -1.064,3.59791 -0.60113,5.50334 0.3076,1.2661 1.5141,2.06976 2.80247,1.5974 0.74109,-0.27178 1.3186,-0.96393 1.7476,-1.5974 0.15808,-0.23335 0.40835,-0.90543 0.71298,-0.96258 0.19177,-0.036 0.43468,1.3589 0.76048,1.56735 1.31656,0.84226 3.10532,-1.07891 3.46761,-2.21344 h 0.0847 c -0.0791,0.61265 -0.92354,2.75903 -0.15807,3.06849 0.49809,0.20134 0.75946,-0.31598 0.88409,-0.69782 0.53255,-1.63187 1.81144,-2.87638 2.99932,-4.064 0.061,1.23232 -0.5207,2.41494 -0.5605,3.64058 -0.0262,0.81085 0.79163,0.64854 1.23783,0.29794 0.21166,-0.16671 0.40301,-0.36085 0.59266,-0.55194 0.29634,-0.29845 0.56219,-0.62222 0.84667,-0.93125 0,0.30649 -0.0262,0.62848 0.0279,0.93133 0.18288,1.02184 1.27,1.233 2.08873,0.79181 0.69511,-0.37482 1.04817,-1.04183 1.60866,-1.55381 0,0.34121 -0.0127,0.6836 0.0787,1.016 0.7002,2.5538 3.29184,0.14563 3.98442,-1.016 0.16425,-0.27677 1.05748,-1.76581 0.0855,-1.64405 -0.4318,0.054 -0.68072,0.6449 -0.88223,0.96672 -0.4047,0.64465 -0.90762,1.43815 -1.65777,1.69333 -0.36322,-1.95614 0.71628,-3.58174 1.61968,-5.16466 0.27177,-0.47625 0.77723,-1.39912 0.15832,-1.778 0.89493,-1.12895 1.49183,-2.52669 2.13783,-3.81 0.25654,-0.51005 0.71882,-1.05219 0.85175,-1.60867 0.21929,-0.92426 -1.07611,-0.77313 -1.54855,-0.48866 -0.53171,0.3196 -0.71459,0.97247 -0.95928,1.50466 -0.54694,1.19206 -0.97282,2.82761 -1.75767,3.87104 -0.23792,0.3153 -0.74846,0.34544 -1.09474,0.48531 -0.54611,0.22056 -1.0668,0.54974 -1.52401,0.91931 -1.11929,0.90526 -1.71788,2.0845 -2.678,3.07942 -0.21336,0.22047 -0.52917,0.16789 -0.76539,0.34374 -0.32851,0.24418 -0.48768,0.67581 -0.78994,0.95318 m -65.786001,-8.21267 c -0.888577,-0.54463 -1.472269,1.38371 -1.918462,2.032 -1.623399,2.35873 -3.459565,4.85919 -4.685538,7.45067 h -0.08467 c 0.336211,-2.66057 -0.799338,-5.29336 -0.48387,-7.95867 0.06587,-0.55581 0.08729,-1.20548 0.398695,-1.68999 0.18923,-0.29454 0.759884,-0.65497 0.492083,-1.06723 -0.464905,-0.71549 -1.456775,0.44719 -1.761575,0.72522 -0.110998,-0.60715 -0.45466,-0.67572 -1.016,-0.67733 0,-0.43652 0.131742,-1.6413 -0.508338,-1.67158 -1.024128,-0.0485 -0.08018,1.74074 -0.774192,2.04383 -0.403098,0.17602 -1.0668,0.1254 -1.51147,0.19951 -1.872826,0.31213 -5.465157,0.5806 -6.309106,2.64557 -0.544195,1.33156 0.346693,2.88011 1.483106,3.56193 0.39569,0.23741 1.588813,0.74693 1.94459,0.21133 0.315384,-0.47481 -0.372008,-0.69791 -0.67459,-0.83634 -0.74444,-0.34061 -1.861981,-1.14901 -1.808048,-2.09025 0.0432,-0.75404 1.034915,-1.12598 1.638715,-1.30471 1.723221,-0.51013 3.643884,-0.23986 5.334,-0.81196 -0.556599,3.23435 -2.332059,6.55854 -4.511506,8.9734 -0.553694,0.61349 -1.318929,1.23673 -2.092494,1.54559 -0.590779,0.23588 -1.352161,0.13699 -1.439333,0.91101 -0.807195,-0.27516 -0.878409,-0.97002 -0.6482,-1.69333 0.105732,-0.33215 0.38409,-0.95665 -0.122682,-1.11328 -0.476462,-0.14724 -0.828048,0.60392 -0.966876,0.94395 -0.379468,0.92938 -0.306815,2.12784 0.637159,2.6786 1.17348,0.68461 2.858482,0.13174 3.979265,-0.41453 2.182707,-1.06384 3.786294,-3.04809 5.052992,-5.05807 0.533315,-0.84616 1.148588,-1.81272 1.381675,-2.794 h 0.08467 c 0,1.91372 0.593513,3.76512 0.592666,5.67266 -1.69e-4,0.44069 -0.633137,1.69478 0.0092,1.83202 0.773599,0.16527 1.688507,-1.15409 2.089573,-1.66268 1.613662,-2.04606 2.648712,-4.53983 4.335865,-6.51934 -0.415375,1.81204 -1.141053,3.7112 -0.614172,5.588 0.465497,1.65803 2.304627,2.11608 3.577505,1.00034 0.506138,-0.44365 0.838793,-1.00237 1.27,-1.50834 0.01812,2.15875 2.458212,1.70451 2.963334,0 h 0.08467 c 0.04106,0.31801 0.09745,0.6356 0.227246,0.93134 1.08695,2.47641 3.203448,-0.80171 4.090754,-1.524 0.04953,0.56379 0.301075,1.02616 0.685208,1.43899 0.754464,0.81077 2.182622,1.34789 3.116918,0.49022 0.362458,-0.33274 0.441283,-0.87909 0.795444,-1.18389 0.437472,-0.37635 1.891792,-1.20032 1.411054,-1.99568 -0.435102,-0.71992 -1.328758,0.6322 -1.605957,0.91169 -0.03962,-0.90797 -0.864531,-2.09753 -0.683429,-2.96291 0.161628,-0.77233 1.850559,-0.24731 1.46685,-1.26915 -0.303192,-0.80755 -1.482852,-0.66608 -2.053082,-0.28829 -1.065615,0.70595 -1.836082,2.37524 -2.117006,3.58902 -1.66624,-0.78681 -2.551684,2.01574 -3.725333,2.62466 -0.04225,-0.98696 -0.07256,-2.13055 0.386842,-3.04673 0.3937,-0.78545 1.382353,-1.24019 1.179661,-2.28727 -0.265684,-1.37278 -2.128351,-0.76039 -2.92117,-0.32334 -1.277366,0.70417 -1.874689,1.8785 -2.790105,2.92142 -0.199898,0.22767 -0.527558,0.25798 -0.748115,0.46923 -0.402844,0.38591 -0.660146,0.96799 -0.98535,1.42003 -0.270002,0.37532 -1.151975,1.63703 -1.67276,0.99119 -0.625856,-0.77623 -0.367538,-2.28422 -0.326305,-3.19253 0.04885,-1.0773 0.200575,-2.14638 0.328845,-3.21733 0.06562,-0.54822 0.05156,-1.27652 0.293963,-1.778 0.566505,-1.17163 2.11836,-2.4307 3.275161,-2.98156 0.635846,-0.30278 1.926759,-0.64607 2.145284,0.35696 0.0939,0.43074 -0.269833,0.93517 -0.02616,1.34166 0.222334,0.37106 0.567859,0.11152 0.728472,-0.15803 0.853101,-1.43165 0.0039,-3.46403 -1.746928,-3.38163 -1.556681,0.0733 -3.478868,1.61523 -4.148666,2.95993 m 18.457333,5.24934 c -0.775716,-0.0612 -1.775375,-0.26349 -2.53873,-0.0479 -0.500041,0.14113 -0.658791,0.80949 -0.361781,1.21513 0.386842,0.52832 1.550501,0.43019 1.733127,1.12243 0.265515,1.00643 -1.036489,2.67275 0.324358,3.43027 1.104138,0.61451 2.592155,-0.59462 3.161707,-1.48658 0.196766,-0.30819 0.25798,-0.921 -0.287951,-0.88511 -0.804503,0.0528 -1.349841,1.2286 -2.200063,1.39311 1.69e-4,-1.17754 0.389551,-2.17568 0.91042,-3.21733 0.168148,-0.33621 0.315299,-0.80163 0.631614,-1.02836 0.648123,-0.46457 1.704001,-0.56126 2.437299,-0.90966 0.287105,-0.13649 0.763185,-0.38168 0.722545,-0.76666 -0.08458,-0.80044 -1.94293,0.12302 -2.331212,0.24934 0.233257,-0.80966 0.704935,-1.59376 1.039792,-2.37066 0.133265,-0.30929 0.3948,-0.74499 0.262466,-1.09146 -0.230378,-0.60321 -1.361186,-0.3819 -1.683427,0.002 -0.667089,0.79507 -1.031579,2.16971 -1.445599,3.12137 -0.182795,0.4202 -0.438065,0.80162 -0.374565,1.27 m 41.740661,-3.25721 c -0.61536,0.13521 -1.26001,0.5389 -1.50436,1.14054 -0.25298,0.62306 0.23995,1.24782 0.91042,1.06392 0.58759,-0.1612 2.03988,-2.52222 0.59394,-2.20446 m -69.765328,0.20921 v 0.254 h -0.08467 l 0.08467,-0.254 m 53.932668,0 v 0.254 h -0.0847 l 0.0847,-0.254 m -54.017334,0.33866 c -0.17289,1.28287 -0.804672,2.61036 -1.439334,3.72534 h -0.08467 l 1.524,-3.72534 m 53.932668,0 -1.18533,3.21734 h -0.0847 l 1.27,-3.21734 m -16.340668,4.99534 c -0.995765,-0.61113 -2.127166,1.62424 -3.048,2.08466 -0.33909,0.1695 -0.823468,0.35111 -1.176444,0.12742 -0.39099,-0.24773 -0.648123,-1.11006 -0.296502,-1.487 0.263228,-0.28219 0.873675,-0.32766 1.218946,-0.50266 1.107694,-0.56177 3.730921,-2.89713 1.692994,-4.02057 -1.559052,-0.85954 -2.865458,0.95665 -3.60282,2.02015 -0.180171,0.25984 -0.297942,0.85115 -0.580983,0.99898 -0.232579,0.12141 -0.64389,-0.0471 -0.895858,-0.0677 l 0.762,1.10067 c -0.787485,1.19303 -0.09313,3.22105 1.439333,3.26339 1.595205,0.0441 3.486912,-1.36466 4.148667,-2.75539 l 0.762,0.16933 -0.08467,-0.42333 0.677334,-0.254 c -0.27195,0.66294 -0.970026,1.64871 -0.938784,2.37058 0.02362,0.54694 0.785791,0.99001 1.23427,0.60172 0.509778,-0.44119 0.618998,-1.60909 0.921766,-2.2103 0.506984,-1.00661 1.416897,-1.89315 2.254081,-2.62467 0.0032,0.48717 -0.319617,0.88138 -0.324781,1.35424 -0.01016,0.91906 1.048681,0.3004 1.32207,-0.0855 1.079161,-1.52324 -0.117518,-3.19752 -1.759289,-1.95453 -0.337735,0.25569 -0.632375,0.55643 -0.931333,0.85513 0.155194,-0.67885 0.389466,-1.42079 0.174159,-2.11539 -0.13208,-0.42622 -0.610108,-0.66684 -1.002707,-0.37355 -0.376682,0.28151 -0.430276,0.89382 -0.599017,1.30361 -0.376005,0.91305 -1.02997,1.70578 -1.366435,2.62467 m 44.111331,-3.556 c -0.14393,0.46947 -0.42164,0.4075 -0.74252,0.70417 -0.28702,0.26492 -0.27009,0.67598 -0.50208,0.97104 -0.21674,0.27585 -0.61298,0.3269 -0.80771,0.62205 -0.25485,0.38642 0.10329,0.6129 0.44365,0.66607 -0.32936,1.04013 -1.19973,2.05825 -2.286,2.286 -0.49615,-1.67886 1.33434,-3.31834 2.45533,-4.29353 0.42249,-0.36737 0.88561,-0.82423 1.43933,-0.9558 m -46.397331,1.10066 c -0.34434,0.99331 -1.364234,1.96529 -2.370667,2.286 0.52705,-0.75717 1.423162,-2.09482 2.370667,-2.286 m -19.219334,0.16934 c -0.315806,0.56946 -1.948603,1.90601 -0.931333,2.20133 -0.181949,0.77436 -1.067985,1.90551 -1.947333,1.778 0.374057,-1.43002 1.535768,-3.2827 2.878666,-3.97933 m 36.576005,0.59266 -0.0847,0.0847 0.0847,-0.0847 m -25.146005,0.33867 v 0.16933 h -0.169333 v -0.16933 h 0.169333 m -5.672666,0.0847 0.423333,2.286 -1.185333,-0.59267 z"
       id="path191"
       inkscape:export-filename="logo_vectorizado.png"
       inkscape:export-xdpi="96"
       inkscape:export-ydpi="96" /></g></svg>
